<svg version="1.1" id="Layer_1" xmlns="http://www.w3.org/2000/svg" xmlns:xlink="http://www.w3.org/1999/xlink" x="0px" y="0px"
	 width="100%" viewBox="0 0 1024 1024" enable-background="new 0 0 1024 1024" xml:space="preserve">
<path fill="#000000" opacity="1.000000" stroke="none" 
	d="
M537.454163,877.520020 
	C537.539001,862.220032 537.735901,847.385742 537.541443,832.556580 
	C537.481140,827.960266 538.962769,826.304749 543.552002,826.640503 
	C548.193542,826.980042 552.888000,826.538757 557.543335,826.765747 
	C561.546631,826.960938 562.468689,825.181519 562.764893,821.440063 
	C563.470886,812.523193 560.645142,804.034180 560.252014,795.257751 
	C559.796509,785.088196 560.149109,774.934692 560.080078,764.774841 
	C560.057617,761.467712 561.577759,759.960266 565.035828,760.167725 
	C570.350708,760.486694 575.682190,760.671997 581.005615,760.649597 
	C584.231506,760.635986 585.483948,761.932495 585.424255,765.104004 
	C585.311462,771.101135 585.337830,777.102478 585.405212,783.101013 
	C585.550781,796.053833 585.616089,809.010254 586.014526,821.955994 
	C586.164673,826.834412 584.268738,828.518433 579.573059,828.197876 
	C575.593262,827.926208 571.577393,828.226501 567.579163,828.166504 
	C564.651611,828.122559 563.350159,829.366882 563.404297,832.362976 
	C563.672180,847.184814 563.915833,862.007751 564.027649,876.831360 
	C564.058655,880.943359 566.693359,880.697327 569.453491,880.694153 
	C587.619385,880.673523 605.785217,880.674988 623.951111,880.672668 
	C646.783325,880.669739 669.616577,880.550354 692.446777,880.765442 
	C697.271545,880.810852 698.785400,879.277649 698.762024,874.493835 
	C698.586975,838.674683 698.643616,802.854370 698.596924,767.034424 
	C698.587585,759.901855 697.992554,759.367676 690.913818,759.338318 
	C682.730286,759.304382 682.728699,759.304443 682.739258,751.129883 
	C682.743958,747.463379 682.510193,743.775452 682.826599,740.135681 
	C683.240356,735.377258 681.104980,733.904175 676.685974,734.188354 
	C673.034790,734.423218 669.355896,734.248535 665.689575,734.221008 
	C659.421692,734.174011 658.944336,733.778503 659.014099,727.333374 
	C659.071777,722.008972 659.271851,716.676575 659.678650,711.368469 
	C659.985962,707.359070 658.264709,705.954773 654.456665,706.141785 
	C651.299133,706.296875 648.116455,705.966187 644.961731,706.146362 
	C640.742615,706.387329 638.837524,704.759338 638.978760,700.378357 
	C639.166565,694.552246 639.007385,688.714050 638.958496,682.881409 
	C638.906555,676.693237 638.543457,676.286133 632.472229,676.280457 
	C609.473145,676.259155 586.474060,676.279846 563.474976,676.281921 
	C554.702271,676.282715 554.698547,676.279175 554.662720,667.758545 
	C554.645203,663.592102 554.908264,659.403687 554.564758,655.265015 
	C554.191650,650.770203 556.008179,649.562317 560.295898,649.591187 
	C583.960510,649.750549 607.626770,649.660339 631.292419,649.672424 
	C640.255737,649.677002 640.577332,649.417480 640.561584,640.494385 
	C640.555359,636.999512 640.314026,633.505615 640.217590,630.010254 
	C640.140259,627.208557 641.253540,625.525391 644.347290,625.810059 
	C664.084778,627.626526 683.434692,622.156860 703.097412,622.694397 
	C706.621704,622.790649 707.808838,621.328003 707.702881,617.938171 
	C707.526001,612.276917 707.878601,606.592529 707.549438,600.944641 
	C707.276917,596.268799 708.712219,594.333496 713.677917,594.589661 
	C720.825439,594.958313 728.017761,594.440552 735.167908,594.782898 
	C739.708740,595.000366 741.025879,593.290100 740.729736,589.002319 
	C740.408936,584.357300 740.935974,579.649353 740.547119,575.014648 
	C740.127869,570.017273 742.252502,568.507812 746.890564,568.835754 
	C750.705078,569.105408 754.557068,568.793518 758.384827,568.939697 
	C761.652466,569.064392 762.822876,567.643494 762.711670,564.457703 
	C762.548950,559.796997 762.797913,555.121887 762.634766,550.461243 
	C762.515564,547.054993 763.837341,545.620605 767.290466,545.691101 
	C773.620605,545.820374 779.957031,545.632629 786.287781,545.745361 
	C789.491028,545.802368 790.639282,544.508850 790.722351,541.302063 
	C791.304382,518.810303 789.251099,496.364868 789.640320,473.880310 
	C789.696777,470.618530 787.756470,469.459503 784.875122,469.424835 
	C779.542847,469.360626 774.193970,469.120789 768.881226,469.440247 
	C764.187439,469.722504 762.756531,467.742676 762.786682,463.331665 
	C762.923401,443.333344 762.901123,423.333740 762.890198,403.334595 
	C762.844421,319.671631 762.784668,236.008652 762.721191,152.345673 
	C762.715576,144.887360 762.209778,144.410202 754.914978,144.410248 
	C726.595703,144.410431 698.275818,144.490753 669.957642,144.313492 
	C665.645020,144.286499 663.852844,145.371353 664.240112,149.890594 
	C664.580322,153.860062 664.131775,157.891174 664.319824,161.881454 
	C664.481079,165.303268 663.311768,166.549728 659.738953,166.482300 
	C648.243225,166.265396 636.741394,166.380920 625.241882,166.358887 
	C618.433838,166.345840 618.387085,166.382034 618.380615,173.429672 
	C618.374939,179.544800 618.379395,185.659912 618.379395,192.177277 
	C609.585571,192.177277 601.465759,192.188110 593.345947,192.173996 
	C586.372131,192.161880 586.373474,192.149277 586.368347,198.901443 
	C586.365295,202.901260 586.156921,206.913574 586.405518,210.897507 
	C586.672607,215.177841 584.821594,216.183365 580.786133,216.157135 
	C549.289856,215.952301 517.792175,215.938141 486.294922,215.905151 
	C456.968445,215.874435 427.639465,216.403793 398.317078,215.463196 
	C396.522003,215.405609 394.718567,215.608963 392.301178,215.719025 
	C392.301178,221.184372 392.190216,226.305206 392.340424,231.418350 
	C392.439575,234.794556 391.189880,236.296158 387.694672,236.179581 
	C382.867218,236.018600 378.027008,236.052734 373.197906,236.194931 
	C369.740021,236.296768 368.419861,234.811111 368.566284,231.410965 
	C368.745361,227.251724 368.717682,223.077820 368.616486,218.914200 
	C368.543152,215.897964 369.934082,214.717819 372.830688,214.747787 
	C377.496185,214.796066 382.169281,214.563385 386.827148,214.749771 
	C390.565155,214.899353 391.906372,213.355698 391.707245,209.720978 
	C391.497864,205.899109 391.547180,202.053772 391.675140,198.225113 
	C391.821777,193.837570 390.129791,192.001297 385.478455,192.092865 
	C372.317230,192.351959 359.145538,192.066315 345.983612,192.306259 
	C341.233429,192.392853 339.311859,190.799515 339.677124,185.965393 
	C340.015381,181.488922 339.541107,176.949326 339.908234,172.477219 
	C340.295807,167.755783 338.780701,165.992142 333.819031,166.113739 
	C320.993683,166.428040 308.154388,166.128662 295.324249,166.317398 
	C291.421997,166.374802 289.797699,164.993896 290.065369,161.121323 
	C290.340729,157.137512 290.386169,153.138123 290.641724,149.152557 
	C290.851654,145.877930 289.757324,144.239868 286.148590,144.260635 
	C266.316711,144.374756 246.483627,144.413925 226.651840,144.309128 
	C222.351028,144.286407 222.401550,146.811325 222.351990,149.866608 
	C221.860062,180.200073 223.267639,210.514053 223.240265,240.841736 
	C223.180710,306.838470 223.106766,372.835236 223.021439,438.831970 
	C223.012360,445.853119 222.776901,446.042389 215.664490,446.058807 
	C211.331451,446.068787 206.983063,446.263763 202.669449,445.968445 
	C198.288437,445.668488 196.584229,447.714111 196.526901,451.747040 
	C196.462982,456.244873 196.224808,460.750977 196.415924,465.238434 
	C196.576004,468.996399 194.990082,470.292999 191.411926,470.160156 
	C187.085403,469.999542 182.747711,470.165833 178.415817,470.112854 
	C175.490997,470.077118 174.281784,471.341339 174.288818,474.340973 
	C174.341660,496.839813 174.329575,519.338989 174.238098,541.837708 
	C174.225159,545.017944 175.721283,545.861877 178.539383,545.785828 
	C182.703171,545.673279 186.885056,545.932007 191.034027,545.654968 
	C195.054306,545.386536 196.366455,547.100098 196.228043,550.906433 
	C196.058624,555.565430 196.320557,560.238525 196.243576,564.903015 
	C196.197891,567.670898 197.369370,568.823914 200.112091,568.786926 
	C205.777328,568.710510 211.446259,568.848206 217.109711,568.721252 
	C220.109787,568.653992 221.329987,569.862549 221.265305,572.848999 
	C221.139008,578.679749 221.276779,584.516846 221.116776,590.346069 
	C221.028992,593.544678 222.235291,594.847839 225.498779,594.753418 
	C230.993622,594.594299 236.502090,594.877258 241.994995,594.688416 
	C245.962051,594.552124 247.341492,596.205261 247.108643,600.054199 
	C246.756897,605.868713 246.761658,611.703857 246.515381,617.526062 
	C246.377365,620.788818 246.908569,622.900208 251.059921,622.732544 
	C272.066284,621.884460 292.792328,627.089233 313.833282,625.769409 
	C316.621307,625.594482 317.654510,626.785034 317.525085,629.629639 
	C317.290375,634.786743 317.516357,639.964966 317.279968,645.121948 
	C317.119415,648.624451 318.490509,649.791443 321.937439,649.749451 
	C335.268524,649.586853 348.605743,649.798462 361.932709,649.507446 
	C366.181030,649.414734 367.516754,650.794922 367.301178,654.903198 
	C367.004578,660.555481 367.123291,666.232666 367.163605,671.898438 
	C367.185913,675.026184 365.907715,676.348145 362.660461,676.311584 
	C348.829285,676.155945 334.996185,676.123535 321.163971,676.148315 
	C317.986908,676.153992 316.631073,674.904236 316.719391,671.687744 
	C316.861206,666.524841 316.539398,661.340027 316.874603,656.194519 
	C317.135376,652.191345 315.289825,650.767761 311.737671,650.582336 
	C310.739716,650.530212 309.741150,650.426025 308.743744,650.435608 
	C289.753418,650.617615 270.816437,648.383972 251.820572,649.131042 
	C247.366913,649.306335 245.414062,647.904114 245.731033,643.177063 
	C246.064682,638.200989 245.626450,633.177673 245.803970,628.184937 
	C245.936401,624.460693 244.313873,623.136719 240.755600,623.203735 
	C235.091888,623.310547 229.409256,622.919800 223.761826,623.231689 
	C218.828766,623.504150 217.322952,621.500854 217.626953,616.809082 
	C217.971161,611.496704 217.598160,606.141235 217.828217,600.817017 
	C217.980392,597.294983 216.562759,596.037598 213.160431,596.155640 
	C208.999954,596.299988 204.826904,596.052063 200.663483,596.150879 
	C197.288055,596.230957 195.824997,594.842102 195.898270,591.400696 
	C196.015289,585.904358 195.806900,580.401794 195.869995,574.903381 
	C195.906281,571.742676 194.806717,570.490479 191.405548,570.704712 
	C186.599136,571.007324 181.754120,570.689941 176.925522,570.650085 
	C173.814804,570.624451 172.524597,569.139343 172.635529,565.979065 
	C172.799133,561.318542 172.494705,556.639343 172.718964,551.983948 
	C172.894684,548.335876 171.546875,546.779358 167.862854,546.902039 
	C162.867920,547.068481 157.855743,546.819580 152.868530,547.082214 
	C148.894470,547.291565 147.676727,545.679382 147.697052,541.830505 
	C147.815018,519.498840 147.854401,497.165253 147.652634,474.834717 
	C147.609756,470.087677 149.491440,468.682587 153.855667,468.875092 
	C158.345169,469.073120 162.861710,468.673279 167.349625,468.887207 
	C171.389999,469.079803 173.159302,467.714874 172.876114,463.462830 
	C172.588852,459.149384 172.990753,454.793365 172.789795,450.469971 
	C172.595093,446.281219 173.986206,444.277344 178.505936,444.630798 
	C182.481262,444.941589 186.518646,444.449768 190.495682,444.749634 
	C195.324982,445.113770 196.797562,443.104980 196.927719,438.404236 
	C197.776550,407.752380 197.727753,377.095795 197.730209,346.439209 
	C197.735458,281.108490 197.688538,215.777771 197.663116,150.447052 
	C197.662354,148.465057 197.663010,146.483047 197.663010,144.037582 
	C203.970322,143.732788 209.891190,143.324112 215.817871,143.204269 
	C219.635056,143.127106 221.182495,141.576172 220.904663,137.697098 
	C220.643478,134.050247 221.028824,130.360367 220.843445,126.703934 
	C220.623047,122.356865 222.022385,120.507393 226.812164,120.565529 
	C246.475037,120.804199 266.143921,120.775139 285.807465,120.560638 
	C290.326965,120.511337 291.735748,122.140144 291.380829,126.394562 
	C291.104614,129.705261 291.329834,133.056503 291.302063,136.389481 
	C291.248077,142.871964 291.239319,142.884186 297.535339,142.888245 
	C310.534821,142.896637 323.536224,143.016693 336.532684,142.818665 
	C340.800476,142.753632 342.718018,144.066437 342.387512,148.524673 
	C342.117126,152.171600 342.536530,155.870148 342.257996,159.515839 
	C341.943542,163.631683 343.460205,165.096130 347.635162,165.028702 
	C360.298035,164.824203 372.966309,164.928696 385.632355,164.957367 
	C391.742188,164.971191 392.118195,165.357239 392.192902,171.503708 
	C392.251648,176.336060 392.311676,181.172226 392.183685,186.001709 
	C392.094208,189.377930 393.390442,190.822906 396.881134,190.736755 
	C403.710205,190.568207 410.546082,190.671677 417.379150,190.670532 
	C470.377075,190.661774 523.375000,190.655655 576.372925,190.644211 
	C578.038940,190.643860 579.705322,190.609390 581.370911,190.565536 
	C584.455505,190.484344 585.798523,188.961517 585.720886,185.811600 
	C585.585449,180.315414 585.807800,174.809433 585.629944,169.315643 
	C585.516541,165.811401 586.971558,164.625656 590.364319,164.689590 
	C597.861084,164.830856 605.365356,164.593414 612.861267,164.755341 
	C616.571838,164.835526 617.930298,163.335312 617.811218,159.720947 
	C617.642029,154.588501 617.768250,149.446304 617.768250,143.718689 
	C621.465454,143.488663 624.729858,143.150452 627.998108,143.107224 
	C638.329529,142.970657 648.662720,142.871765 658.994507,142.915390 
	C662.565613,142.930466 664.167908,141.642120 663.976135,137.917801 
	C663.753601,133.595535 663.925049,129.253998 663.875549,124.921410 
	C663.841431,121.931099 664.789246,120.480270 668.247681,120.496559 
	C698.412231,120.638580 728.577942,120.671860 758.742310,120.528297 
	C762.660706,120.509651 763.619507,121.930534 763.484741,125.469055 
	C763.300964,130.292877 763.633057,135.135208 763.491516,139.962219 
	C763.405945,142.882385 764.673645,143.741058 767.367981,143.705841 
	C774.351807,143.614548 781.337585,143.675201 788.293274,143.675201 
	C790.070923,146.074890 789.309998,148.659454 789.311584,151.054962 
	C789.379822,254.384094 789.398254,357.713257 789.424194,461.042419 
	C789.426147,468.720123 789.431335,468.719940 797.264465,468.725861 
	C802.097595,468.729523 806.932129,468.807556 811.763245,468.711182 
	C814.823669,468.650177 816.361938,469.709351 816.351257,473.028412 
	C816.276184,496.360535 816.273499,519.692993 816.316772,543.025208 
	C816.322449,546.055115 814.993286,547.160767 812.082458,547.128784 
	C806.583984,547.068298 801.081787,547.283447 795.584778,547.183411 
	C792.389893,547.125366 791.054321,548.438782 791.085144,551.607300 
	C791.130432,556.271240 790.797363,560.943726 790.968994,565.599976 
	C791.109802,569.418823 789.702820,571.123840 785.802307,571.031433 
	C780.306091,570.901306 774.797913,571.183411 769.306274,570.980408 
	C765.450134,570.837830 763.871887,572.217224 764.021667,576.174683 
	C764.216858,581.330811 763.923218,586.503601 763.937561,591.669006 
	C763.946167,594.776733 762.647705,596.242065 759.425049,596.146545 
	C755.429443,596.028076 751.424744,596.234314 747.427612,596.142212 
	C744.259094,596.069275 742.919006,597.372498 742.999939,600.606262 
	C743.145935,606.435425 742.905212,612.275330 743.097229,618.101807 
	C743.225220,621.986023 741.728149,623.423462 737.823059,623.316345 
	C730.329407,623.110657 722.817932,623.486389 715.328552,623.214478 
	C710.855103,623.051941 708.917542,624.368652 709.249939,629.126221 
	C709.609131,634.267639 709.218445,639.456909 709.377197,644.618530 
	C709.475830,647.826050 708.188538,649.234436 705.007141,649.140686 
	C702.510315,649.067078 700.008057,649.198792 697.509277,649.163818 
	C680.518311,648.926147 663.595093,650.580322 646.628540,650.939453 
	C642.447388,651.028015 641.083008,652.754456 641.272644,656.737976 
	C641.502258,661.560059 641.409119,666.403748 641.287659,671.233887 
	C641.207825,674.406250 642.480896,675.810730 645.710693,675.718323 
	C649.873352,675.599304 654.057617,675.938110 658.205078,675.664185 
	C662.507141,675.380066 664.318787,676.934692 664.092590,681.337646 
	C663.759521,687.820862 663.942993,694.332764 663.535095,700.809082 
	C663.267212,705.062378 664.522156,707.022461 669.063171,706.776123 
	C673.881226,706.514587 678.728455,706.844177 683.558167,706.724731 
	C686.935425,706.641174 688.436340,707.980286 688.340637,711.432922 
	C688.206665,716.262085 688.634216,721.124023 688.239319,725.924011 
	C687.826843,730.937866 689.951050,732.407593 694.579590,732.139038 
	C698.054077,731.937561 701.561401,732.380676 705.055359,732.416138 
	C708.340698,732.449463 709.273376,734.116394 709.134521,737.201660 
	C708.909973,742.192627 709.105957,747.201294 708.947205,752.196838 
	C708.820557,756.182983 710.362488,757.852234 714.537048,757.787781 
	C726.366882,757.604980 738.205566,757.570984 750.032532,757.839050 
	C754.720276,757.945312 756.026184,756.162720 756.039612,751.697876 
	C756.130981,721.207703 756.521423,690.718201 756.573303,660.228149 
	C756.581482,655.408020 757.213257,652.746643 762.979675,653.468323 
	C766.717102,653.936035 770.610046,652.998169 774.434998,652.976013 
	C777.973389,652.955505 779.062988,651.176575 778.983704,647.959473 
	C778.852417,642.630005 778.965088,637.293457 778.779907,631.966736 
	C778.650513,628.242432 779.897766,626.595581 783.939453,626.617737 
	C808.271057,626.751160 832.604187,626.753784 856.935669,626.606812 
	C861.134827,626.581482 862.547302,628.107422 862.350586,632.168396 
	C862.092834,637.490051 862.413635,642.839355 862.168152,648.162109 
	C861.986267,652.105835 863.729736,653.634155 867.447083,653.594727 
	C871.445923,653.552307 875.463074,653.846802 879.440369,653.557129 
	C883.411377,653.267944 884.507385,654.689819 884.480408,658.644348 
	C884.300598,684.975403 884.368835,711.308228 884.365662,737.640442 
	C884.364136,750.473206 884.283203,763.307190 884.452332,776.137878 
	C884.502869,779.970032 883.267517,781.815796 879.300842,781.359314 
	C878.643311,781.283630 877.968872,781.354553 877.302246,781.357544 
	C864.306091,781.415649 864.314026,781.415649 864.324646,794.162781 
	C864.332458,803.495728 864.126648,812.834167 864.392639,822.159363 
	C864.520325,826.634827 863.173950,828.590576 858.489075,828.282410 
	C854.009216,827.987732 849.488464,828.371216 844.995728,828.197815 
	C841.603638,828.066772 840.333374,829.273193 840.250732,832.791748 
	C839.956848,845.310669 839.840515,845.307800 827.029480,845.346497 
	C826.696167,845.347534 826.362793,845.348328 826.029480,845.349609 
	C816.758423,845.384033 816.649658,845.380432 816.349670,854.517822 
	C816.240295,857.847412 815.192444,859.410339 811.646057,859.226135 
	C807.825073,859.027710 803.976807,859.384460 800.151733,859.226685 
	C795.755981,859.045227 794.188843,861.201538 794.284424,865.303162 
	C794.385315,869.633789 794.064880,873.983704 794.346313,878.297974 
	C794.644592,882.869690 792.921936,884.395508 788.315430,884.356140 
	C765.317993,884.159790 742.318176,884.241943 719.319153,884.237366 
	C712.259094,884.235962 712.259094,884.252319 712.259399,891.419312 
	C712.260071,905.327271 712.260071,905.316711 698.246643,905.316895 
	C648.081970,905.317505 597.917297,905.320190 547.752625,905.336426 
	C537.985962,905.339600 537.311584,906.051147 537.301636,915.897644 
	C537.288269,929.142334 537.288269,929.148010 524.193115,929.153320 
	C499.527496,929.163330 474.861877,929.177734 450.196259,929.163574 
	C444.105621,929.160034 443.725647,928.619263 444.192932,922.523438 
	C444.472656,918.875000 444.422180,915.202148 444.655304,911.549011 
	C444.960449,906.767944 442.803345,905.233826 438.083527,905.249390 
	C399.085602,905.377686 360.086945,905.323975 321.088562,905.284607 
	C306.089722,905.269470 291.090271,905.039185 276.092651,905.140747 
	C271.410767,905.172485 269.234833,903.632690 269.745544,898.728210 
	C270.037506,895.924316 269.829498,893.067139 269.826691,890.233948 
	C269.818756,882.239868 269.814758,882.229004 262.058319,882.179321 
	C257.558746,882.150574 253.055908,882.059998 248.560028,882.188477 
	C244.372513,882.308228 242.606064,880.652832 242.654297,876.277527 
	C242.817810,861.446838 242.807892,846.611633 242.615326,831.781311 
	C242.562073,827.679504 244.305481,826.587830 247.998505,826.703613 
	C253.159378,826.865417 258.331177,826.643677 263.495850,826.731079 
	C267.162598,826.793152 268.841858,825.359619 269.136414,821.498718 
	C270.051208,809.507812 269.574738,797.509766 269.568115,785.520081 
	C269.565704,781.155701 270.926666,779.689514 275.313721,779.780457 
	C287.474701,780.032349 299.646759,779.741943 311.808167,779.982605 
	C316.328156,780.071960 317.854950,778.649780 317.807556,773.992065 
	C317.573517,750.995117 317.668884,727.994934 317.648529,704.995850 
	C317.646637,702.843872 317.648224,700.691895 317.648224,697.195984 
	C325.584839,697.195984 333.163544,697.084229 340.736023,697.252319 
	C343.663879,697.317200 343.211395,699.863647 343.215027,701.809265 
	C343.239380,714.808716 343.244995,727.808167 343.240387,740.807617 
	C343.224640,785.139099 343.193329,829.470642 343.191376,873.802124 
	C343.191101,880.651367 343.247986,880.665283 350.062500,880.667786 
	C371.561646,880.675659 393.062225,880.539001 414.558807,880.773560 
	C419.480408,880.827332 420.796295,879.120239 420.767822,874.427673 
	C420.602997,847.263428 420.678101,820.097595 420.712524,792.932312 
	C420.723083,784.617554 421.467743,784.053833 429.300873,786.105469 
	C432.841370,787.032837 436.304352,788.166443 440.057556,788.133057 
	C443.610809,788.101318 445.022919,790.423523 445.083832,793.689392 
	C445.214294,800.686890 445.360718,807.685547 445.365021,814.683777 
	C445.382202,842.515930 445.457947,870.348999 445.227325,898.179382 
	C445.186859,903.062500 446.257050,904.838623 451.529968,904.785767 
	C478.192810,904.518738 504.859772,904.666992 531.525269,904.649292 
	C537.429993,904.645386 537.867981,904.183777 537.452148,898.423889 
	C536.960327,891.610291 536.842285,884.800903 537.454163,877.520020 
M756.360046,772.503784 
	C756.372070,774.337036 756.365784,776.170532 756.399414,778.003418 
	C756.514282,784.261475 756.519897,784.234497 750.093201,784.175781 
	C742.094849,784.102661 734.094055,784.171875 726.098450,783.993042 
	C722.475037,783.911926 721.075745,785.306213 721.091125,788.973572 
	C721.182739,810.804382 721.165466,832.635803 721.080322,854.466675 
	C721.066650,857.970215 722.579224,859.122253 725.908325,859.108765 
	C746.406006,859.026001 766.904358,858.983032 787.401611,859.090027 
	C791.658875,859.112244 792.930298,857.290466 792.687134,853.314575 
	C792.260315,846.335388 792.256287,839.329590 791.797668,832.353271 
	C791.526367,828.226990 793.036377,826.714417 797.190002,826.774536 
	C808.686096,826.940857 820.191833,826.596375 831.683044,826.883179 
	C836.504272,827.003601 838.012207,825.522522 837.825134,820.654175 
	C837.358582,808.512329 837.517334,796.347778 837.234741,784.196777 
	C837.151733,780.628113 838.575928,779.491821 841.959595,779.656677 
	C845.782532,779.842957 849.642212,779.417419 853.451233,779.709778 
	C858.160217,780.071289 859.919128,778.483765 859.768860,773.533875 
	C859.313843,758.549744 859.130859,743.551758 859.161743,728.559814 
	C859.209106,705.572327 859.371948,682.582275 859.839783,659.600525 
	C859.945251,654.421814 858.323303,653.131653 853.336121,653.186584 
	C831.674011,653.425049 810.007507,653.273743 788.342651,653.252136 
	C781.118713,653.244934 781.074402,653.228516 781.071228,660.316589 
	C781.058411,689.146912 781.063599,717.977234 781.086365,746.807556 
	C781.096252,759.354431 781.122803,759.354370 768.473999,759.341248 
	C756.388733,759.328613 756.388733,759.328674 756.360046,772.503784 
M294.424652,864.120850 
	C294.399780,868.448914 294.422150,872.777893 294.332184,877.104614 
	C294.279236,879.650757 295.422729,880.709595 297.937653,880.678406 
	C303.097839,880.614258 308.262512,880.554871 313.419342,880.702881 
	C316.708038,880.797241 317.786285,879.299500 317.819733,876.203064 
	C318.060699,853.907837 318.334351,831.612549 318.735321,809.319763 
	C318.801758,805.625427 317.425537,804.249939 313.788269,804.331177 
	C307.132446,804.479919 300.469208,804.432129 293.811707,804.315674 
	C290.607758,804.259705 289.280457,805.633484 289.329224,808.785706 
	C289.403931,813.612244 289.162720,818.447388 289.352448,823.267151 
	C289.486877,826.683044 288.184113,828.202087 284.771606,828.117065 
	C281.277863,828.029968 277.779388,828.145203 274.284698,828.080139 
	C271.640839,828.030945 270.275665,829.029785 270.301544,831.870667 
	C270.371338,839.528137 270.360168,847.187317 270.279877,854.844788 
	C270.250946,857.604004 271.396393,858.739014 274.160278,858.691895 
	C279.652527,858.598145 285.149475,858.763489 290.641022,858.651367 
	C294.013092,858.582520 295.206177,860.039734 294.424652,864.120850 
z"/>
<path fill="#000000" opacity="1.000000" stroke="none" 
	d="
M657.166504,418.005249 
	C656.721313,436.528687 658.122437,454.620758 655.616882,472.862396 
	C652.100647,468.725861 647.817322,468.902405 643.486206,468.875793 
	C626.669373,468.772583 609.853577,468.495117 593.036743,468.403839 
	C585.170044,468.361115 584.313049,469.259552 584.365417,476.919861 
	C584.473389,492.705627 582.481384,490.506714 598.234375,490.661255 
	C600.233093,490.680847 602.235962,490.725677 604.230530,490.627991 
	C607.683777,490.458771 610.244385,490.692780 610.585388,495.376770 
	C610.856689,499.103546 613.717590,500.645813 617.570923,499.221069 
	C621.915588,497.614655 626.276489,496.052368 631.029724,494.325775 
	C633.530701,501.041138 634.028076,507.501801 632.849365,514.091919 
	C632.472229,516.200134 630.496521,516.190186 628.822632,516.193298 
	C607.000305,516.233337 585.177856,516.227478 563.355652,516.299255 
	C560.077820,516.309998 559.060913,515.095154 559.376587,511.737488 
	C559.842773,506.778412 559.616699,501.757721 559.806335,496.767883 
	C559.928650,493.549652 558.498779,492.284882 555.329895,492.331299 
	C548.370850,492.433228 541.409241,492.362915 534.239868,492.362915 
	C533.257935,487.328857 533.791931,482.689453 533.775146,478.092072 
	C533.739563,468.333893 533.800476,468.331177 524.266602,468.318390 
	C519.635742,468.312195 515.004883,468.317322 510.769562,468.317322 
	C509.195770,466.322571 509.636383,464.588562 509.635590,462.977814 
	C509.626770,444.820099 509.772339,426.661530 509.619476,408.505341 
	C509.583527,404.229797 510.768402,402.332825 515.287598,402.782257 
	C518.416626,403.093414 521.615479,402.881500 524.771301,402.699371 
	C528.695740,402.472809 530.913696,400.365234 530.940613,396.317566 
	C530.971619,391.654785 530.921875,386.991516 530.910278,382.328461 
	C530.904480,380.005737 531.061401,378.121399 534.327576,378.132629 
	C554.136963,378.200928 573.946960,378.111450 593.756714,378.085449 
	C605.073120,378.070618 616.391541,378.197113 627.704895,378.010895 
	C632.008118,377.940063 633.706726,379.435120 633.406494,383.830902 
	C633.089417,388.473511 633.557251,393.168030 633.275085,397.815186 
	C633.028320,401.879517 634.739685,403.091461 638.538330,402.905640 
	C643.191956,402.677948 647.868713,402.955536 652.527222,402.786682 
	C655.987000,402.661285 657.374023,404.092651 657.209900,407.512238 
	C657.050354,410.836578 657.168457,414.174255 657.166504,418.005249 
M581.666199,436.427612 
	C581.653748,427.284851 581.501648,418.139130 581.696289,409.000763 
	C581.776306,405.240723 580.308716,404.066895 576.736511,404.090576 
	C563.439026,404.178711 550.139099,404.170654 536.842651,403.998657 
	C532.709412,403.945190 531.231201,405.648834 531.282227,409.641907 
	C531.418213,420.279083 531.496338,430.921997 531.280518,441.556213 
	C531.193848,445.825226 532.908081,446.974487 536.895386,446.918549 
	C548.695129,446.753021 560.499268,446.855957 572.301331,446.914246 
	C581.679138,446.960541 581.678955,447.000000 581.666199,436.427612 
z"/>
<path fill="#000000" opacity="1.000000" stroke="none" 
	d="
M265.701050,389.014160 
	C266.027466,377.940308 264.039215,378.697479 275.660980,378.610840 
	C296.311707,378.456879 316.962067,378.252899 337.612915,378.119598 
	C344.182831,378.077209 344.313141,378.270355 344.339417,384.818146 
	C344.356140,388.982727 344.612854,393.169830 344.269653,397.306030 
	C343.891876,401.859070 345.829285,403.188995 350.058929,402.920776 
	C354.206879,402.657745 358.389343,402.985321 362.547211,402.818451 
	C365.857452,402.685669 367.385193,403.747162 367.369720,407.338470 
	C367.253448,434.324158 367.230682,461.310486 367.291046,488.296387 
	C367.299408,492.041138 365.686951,493.430939 362.162323,493.187012 
	C360.668304,493.083618 359.160583,493.166046 357.668945,493.043457 
	C355.678162,492.879822 353.312866,492.860626 352.748596,490.482880 
	C352.223358,488.269531 354.444489,487.539825 355.872620,486.462433 
	C360.076965,483.290741 361.320923,478.620178 361.849670,473.778442 
	C362.144531,471.078552 360.401001,469.420959 357.680206,469.117889 
	C345.723785,467.785858 333.731110,468.320007 321.750061,468.565033 
	C318.718628,468.627014 318.090027,470.859863 318.109528,473.481110 
	C318.179016,482.809143 318.144958,492.138123 318.246399,501.465698 
	C318.275665,504.158020 317.327393,507.515411 321.196716,508.512268 
	C324.991608,509.489990 328.791016,509.777405 331.943817,506.631927 
	C333.778595,504.801453 334.449707,502.350830 335.592560,500.143311 
	C336.720428,497.964569 337.773071,495.064575 340.835510,495.695007 
	C343.849884,496.315552 343.183655,499.341187 343.264709,501.560974 
	C343.803070,516.304016 343.778625,516.306030 329.239014,516.294983 
	C316.745148,516.285461 304.249878,516.162781 291.758209,516.323242 
	C287.482056,516.378113 286.286652,515.148438 287.131256,510.746521 
	C287.967926,506.386414 287.565979,501.796539 287.817291,497.313629 
	C288.012726,493.826782 286.195374,492.487885 283.005005,492.461639 
	C279.507019,492.432861 275.986847,492.187927 272.516449,492.493134 
	C268.641388,492.833893 267.517212,491.177856 267.667694,487.600830 
	C267.856567,483.110809 267.511078,478.594269 267.785767,474.113037 
	C268.047272,469.846802 266.616180,468.028656 262.137726,468.261505 
	C256.489258,468.555176 250.809448,468.194366 245.151535,468.376160 
	C241.414230,468.496216 239.681213,467.265656 239.707382,463.269287 
	C239.828506,444.779205 239.817490,426.287781 239.743286,407.797272 
	C239.729416,404.340363 241.219437,403.012543 244.535400,403.036194 
	C249.864639,403.074219 255.197449,402.830139 260.524170,402.935669 
	C264.425476,403.012970 265.942596,401.296631 265.701904,397.497803 
	C265.533783,394.843872 265.687714,392.169525 265.701050,389.014160 
M266.222809,405.266663 
	C264.374725,417.865295 265.335327,430.510132 265.666779,443.139221 
	C265.742676,446.030701 267.675354,446.933868 270.451630,446.922699 
	C283.446716,446.870270 296.443237,446.865143 309.437225,447.016296 
	C313.278961,447.061005 314.770844,445.665863 314.704132,441.739960 
	C314.523010,431.079956 314.468628,420.410706 314.724609,409.753754 
	C314.831848,405.289490 313.087402,403.933319 308.876221,403.977417 
	C296.382660,404.108185 283.886444,403.972015 271.391266,403.967743 
	C269.776276,403.967194 268.049316,403.302856 266.222809,405.266663 
z"/>
<path fill="#000000" opacity="1.000000" stroke="none" 
	d="
M422.060303,519.286499 
	C411.496704,519.311462 412.385468,518.542847 412.382385,528.410400 
	C412.378082,542.205872 412.402008,542.209106 398.799713,542.193848 
	C396.133911,542.190857 393.423126,541.829773 390.811401,542.194702 
	C384.516907,543.073914 381.016876,537.902039 376.268738,535.572327 
	C373.859985,534.390442 374.800293,530.683594 374.816864,528.072205 
	C374.892212,516.209961 373.259613,517.815857 385.100586,517.694702 
	C391.598175,517.628235 398.111511,517.422913 404.590668,517.776245 
	C409.537964,518.045959 411.245911,516.100159 410.689423,511.398438 
	C410.455872,509.425446 410.577393,507.402405 410.633667,505.404816 
	C410.761963,500.853119 410.988739,496.727448 405.181396,494.687286 
	C402.325897,493.684204 400.487549,490.326508 400.943756,486.399353 
	C401.441589,482.113678 401.379883,477.757721 401.456268,473.430542 
	C401.496063,471.177673 402.300598,470.174561 404.731232,470.181061 
	C417.886200,470.216217 431.042633,470.199463 444.196075,470.018829 
	C448.182526,469.964081 450.085327,471.116089 449.471130,475.473633 
	C449.079346,478.253082 449.385040,481.128967 449.351715,483.961273 
	C449.286194,489.530182 445.585571,494.244720 440.074463,495.267365 
	C437.740143,495.700531 437.103210,497.012268 436.796265,498.960907 
	C436.012756,503.935089 436.380768,508.933838 436.462097,513.924255 
	C436.519836,517.466309 439.010040,517.656860 441.694366,517.650574 
	C453.024384,517.623962 464.356812,517.770569 475.683350,517.570435 
	C479.740753,517.498840 481.649597,518.746277 481.140686,522.971680 
	C480.822723,525.611572 480.768707,528.283081 480.455872,530.923767 
	C479.921387,535.435852 472.944489,542.142273 468.459503,542.187012 
	C458.463898,542.286682 448.466095,542.146484 438.469360,542.170715 
	C435.877014,542.177063 434.419281,541.410889 434.473694,538.466187 
	C434.547394,534.479126 434.157867,530.483215 434.239502,526.496704 
	C434.378815,519.693909 434.100647,519.295593 427.538666,519.273254 
	C425.872406,519.267578 424.206085,519.281738 422.060303,519.286499 
z"/>
<path fill="#000000" opacity="1.000000" stroke="none" 
	d="
M368.037170,358.156067 
	C362.655853,356.263184 357.317780,355.451996 352.951477,352.038055 
	C349.621277,349.434235 347.236450,346.342621 347.107544,342.064911 
	C346.791687,331.580597 346.868347,321.108185 348.883331,310.741333 
	C350.000549,304.993439 353.058533,301.336060 358.813843,299.480835 
	C374.621063,294.385254 390.192261,294.331116 405.610931,300.808777 
	C412.016571,303.499908 413.897339,307.018158 410.158661,312.360107 
	C401.574829,324.625092 396.224426,338.825714 386.704865,350.495178 
	C381.906738,356.376923 376.770996,360.948212 368.037170,358.156067 
z"/>
<path fill="#000000" opacity="1.000000" stroke="none" 
	d="
M511.473083,338.352844 
	C520.133057,347.710052 526.978149,357.370270 525.085205,370.868378 
	C524.221924,377.024994 513.587524,388.300812 507.386414,388.714172 
	C503.007446,389.006042 499.110748,386.182709 497.707123,381.690460 
	C495.970612,376.132935 494.227081,370.577515 492.514954,365.012421 
	C491.771210,362.594818 490.641785,360.428833 489.005402,358.468750 
	C483.109222,351.406128 484.792389,352.382812 489.246429,341.953339 
	C491.300018,337.144592 497.391815,334.554047 502.718903,335.278778 
	C505.701569,335.684570 508.591858,336.478973 511.473083,338.352844 
z"/>
<path fill="#000000" opacity="1.000000" stroke="none" 
	d="
M647.548279,559.289551 
	C646.749146,565.645874 640.759155,570.212585 635.380798,568.978699 
	C633.806458,568.617493 631.965271,567.849976 632.856995,566.153015 
	C634.782227,562.489136 632.052307,560.665588 630.473511,558.297180 
	C629.468506,556.789551 628.244507,555.347778 627.611267,553.688599 
	C626.136536,549.824463 627.697571,545.465393 631.263794,544.665527 
	C635.243530,543.773010 639.451050,543.479370 643.534546,543.624451 
	C645.931580,543.709473 646.752075,546.355591 646.979187,548.513733 
	C647.342163,551.963501 647.364075,555.449280 647.548279,559.289551 
z"/>
<path fill="#000000" opacity="1.000000" stroke="none" 
	d="
M651.232422,768.454346 
	C653.537964,769.821411 654.527771,771.761902 655.287292,773.793457 
	C655.993652,775.682800 656.639221,777.856689 654.713135,779.308411 
	C652.977783,780.616455 650.840393,780.233398 649.034973,779.175964 
	C646.028137,777.414795 643.419983,775.119080 644.424133,771.212585 
	C645.266479,767.935486 648.006531,767.692078 651.232422,768.454346 
z"/>
<path fill="#000000" opacity="1.000000" stroke="none" 
	d="
M149.852966,877.942871 
	C149.867126,876.636902 149.876785,875.804993 149.891495,874.973206 
	C150.024200,867.471619 151.563797,866.464600 159.409622,868.763428 
	C159.291779,869.046509 159.250000,869.492126 159.046829,869.585144 
	C151.428207,873.071655 151.067841,876.938171 157.859634,882.763550 
	C158.637680,883.430847 159.453659,884.065552 159.160736,885.224548 
	C158.876282,886.350037 157.884766,886.624817 156.898972,886.891296 
	C151.627625,888.315918 149.885101,886.226074 149.852966,877.942871 
z"/>
<path fill="#000000" opacity="1.000000" stroke="none" 
	d="
M621.882507,775.778809 
	C621.947998,773.156494 622.095520,770.909790 624.727234,770.195618 
	C626.601929,769.686768 628.384705,770.058167 629.602600,771.743042 
	C631.059570,773.758545 630.456787,775.891907 629.608887,777.887817 
	C628.832153,779.716309 627.274902,780.757812 625.252319,780.493164 
	C622.844299,780.178040 622.173767,778.287231 621.882507,775.778809 
z"/>
<path fill="#000000" opacity="1.000000" stroke="none" 
	d="
M536.160645,509.291809 
	C539.869751,512.300232 544.616577,512.658203 548.636475,514.997009 
	C544.439758,516.411987 540.119385,517.207031 536.187378,515.234436 
	C534.192688,514.233704 534.815247,511.468567 536.160645,509.291809 
z"/>
</svg>